<svg width="20" height="20" viewBox="0 0 20 20" fill="none" xmlns="http://www.w3.org/2000/svg">
<path d="M13.4916 1.66669H6.50829C3.47496 1.66669 1.66663 3.47502 1.66663 6.50835V13.4834C1.66663 16.525 3.47496 18.3334 6.50829 18.3334H13.4833C16.5166 18.3334 18.325 16.525 18.325 13.4917V6.50835C18.3333 3.47502 16.525 1.66669 13.4916 1.66669ZM9.12496 14.5917C8.88329 14.8334 8.42496 15.0667 8.09163 15.1167L6.04163 15.4084C5.96663 15.4167 5.89163 15.425 5.81663 15.425C5.47496 15.425 5.15829 15.3084 4.93329 15.0834C4.65829 14.8084 4.54163 14.4084 4.60829 13.9667L4.89996 11.9167C4.94996 11.575 5.17496 11.125 5.42496 10.8834L9.14163 7.16669C9.20829 7.34169 9.27496 7.51669 9.36663 7.71669C9.44996 7.89169 9.54163 8.07502 9.64163 8.24169C9.72496 8.38335 9.81663 8.51669 9.89163 8.61669C9.98329 8.75835 10.0916 8.89169 10.1583 8.96669C10.2 9.02502 10.2333 9.06669 10.25 9.08335C10.4583 9.33335 10.7 9.56669 10.9083 9.74169C10.9666 9.80002 11 9.83335 11.0166 9.84169C11.1416 9.94169 11.2666 10.0417 11.375 10.1167C11.5083 10.2167 11.6416 10.3084 11.7833 10.3834C11.95 10.4834 12.1333 10.575 12.3166 10.6667C12.5083 10.75 12.6833 10.825 12.8583 10.8834L9.12496 14.5917ZM14.475 9.24169L13.7083 10.0167C13.6583 10.0667 13.5916 10.0917 13.525 10.0917C13.5 10.0917 13.4666 10.0917 13.45 10.0834C11.7583 9.60002 10.4083 8.25002 9.92496 6.55835C9.89996 6.46669 9.92496 6.36669 9.99163 6.30835L10.7666 5.53335C12.0333 4.26669 13.2416 4.29169 14.4833 5.53335C15.1166 6.16669 15.425 6.77502 15.425 7.40835C15.4166 8.00835 15.1083 8.60835 14.475 9.24169Z" fill="white"/>
</svg>
