<svg width="32" height="32" viewBox="0 0 32 32" fill="none" xmlns="http://www.w3.org/2000/svg">
<g id="vuesax/bold/edit-2">
<g id="edit-2">
<path id="Vector" d="M28 29.3333H4C3.45333 29.3333 3 28.8799 3 28.3333C3 27.7866 3.45333 27.3333 4 27.3333H28C28.5467 27.3333 29 27.7866 29 28.3333C29 28.8799 28.5467 29.3333 28 29.3333Z" fill="#F8FAFC"/>
<path id="Vector_2" d="M25.3598 4.63988C22.7731 2.05322 20.2398 1.98655 17.5864 4.63988L15.9731 6.25322C15.8398 6.38655 15.7864 6.59988 15.8398 6.78655C16.8531 10.3199 19.6798 13.1466 23.2131 14.1599C23.2664 14.1732 23.3198 14.1866 23.3731 14.1866C23.5198 14.1866 23.6531 14.1332 23.7598 14.0266L25.3598 12.4132C26.6798 11.1066 27.3198 9.83988 27.3198 8.55988C27.3331 7.23988 26.6931 5.95988 25.3598 4.63988Z" fill="#F8FAFC"/>
<path id="Vector_3" d="M20.8131 15.3733C20.4264 15.1866 20.0531 15 19.6931 14.7867C19.3998 14.6133 19.1198 14.4267 18.8398 14.2267C18.6131 14.08 18.3464 13.8667 18.0931 13.6533C18.0664 13.64 17.9731 13.56 17.8664 13.4533C17.4264 13.08 16.9331 12.6 16.4931 12.0667C16.4531 12.04 16.3864 11.9467 16.2931 11.8267C16.1598 11.6667 15.9331 11.4 15.7331 11.0933C15.5731 10.8933 15.3864 10.6 15.2131 10.3067C14.9998 9.94665 14.8131 9.58665 14.6264 9.21332C14.5603 9.07159 14.4992 8.93153 14.4419 8.79374C14.302 8.45715 13.866 8.36042 13.6082 8.61818L5.78644 16.44C5.61311 16.6133 5.45311 16.9467 5.41311 17.1733L4.69311 22.28C4.55977 23.1866 4.81311 24.04 5.37311 24.6133C5.85311 25.08 6.51977 25.3333 7.23977 25.3333C7.39977 25.3333 7.55977 25.32 7.71977 25.2933L12.8398 24.5733C13.0798 24.5333 13.4131 24.3733 13.5731 24.2L21.3878 16.3853C21.6473 16.1258 21.5489 15.6818 21.2097 15.5415C21.0807 15.4882 20.9492 15.4323 20.8131 15.3733Z" fill="#F8FAFC"/>
</g>
</g>
</svg>
