<svg width="32" height="32" viewBox="0 0 32 32" fill="none" xmlns="http://www.w3.org/2000/svg">
<path d="M16.0801 23.0002C15.5334 23.0002 15.0801 22.5468 15.0801 22.0002V15.3335C15.0801 14.7868 15.5334 14.3335 16.0801 14.3335C16.6267 14.3335 17.0801 14.7868 17.0801 15.3335V22.0002C17.0801 22.5468 16.6267 23.0002 16.0801 23.0002Z" fill="#334155"/>
<path d="M19.3332 19.6665H12.6665C12.1198 19.6665 11.6665 19.2132 11.6665 18.6665C11.6665 18.1198 12.1198 17.6665 12.6665 17.6665H19.3332C19.8798 17.6665 20.3332 18.1198 20.3332 18.6665C20.3332 19.2132 19.8798 19.6665 19.3332 19.6665Z" fill="#334155"/>
<path d="M22.6665 30.3332H9.33317C3.45317 30.3332 1.6665 28.5465 1.6665 22.6665V9.33317C1.6665 3.45317 3.45317 1.6665 9.33317 1.6665H11.3332C13.6665 1.6665 14.3998 2.4265 15.3332 3.6665L17.3332 6.33317C17.7732 6.91984 17.8398 6.99984 18.6665 6.99984H22.6665C28.5465 6.99984 30.3332 8.7865 30.3332 14.6665V22.6665C30.3332 28.5465 28.5465 30.3332 22.6665 30.3332ZM9.33317 3.6665C4.57317 3.6665 3.6665 4.57317 3.6665 9.33317V22.6665C3.6665 27.4265 4.57317 28.3332 9.33317 28.3332H22.6665C27.4265 28.3332 28.3332 27.4265 28.3332 22.6665V14.6665C28.3332 9.9065 27.4265 8.99984 22.6665 8.99984H18.6665C16.9598 8.99984 16.3998 8.41317 15.7332 7.53317L13.7332 4.8665C13.0398 3.9465 12.8398 3.6665 11.3332 3.6665H9.33317Z" fill="#334155"/>
</svg>
