<svg width="21" height="20" viewBox="0 0 21 20" fill="none" xmlns="http://www.w3.org/2000/svg">
<path d="M17.8728 6.46957C18.3002 7.01421 17.8288 7.70835 17.1365 7.70835H3.16663C2.61434 7.70835 2.16663 7.26064 2.16663 6.70835V5.35002C2.16663 3.31669 3.81663 1.66669 5.84996 1.66669H7.78329C9.14163 1.66669 9.56663 2.10835 10.1083 2.83335L11.275 4.38335C11.5333 4.72502 11.5666 4.76669 12.05 4.76669H14.375C15.7938 4.76669 17.0588 5.4322 17.8728 6.46957Z" fill="white"/>
<path d="M18.82 9.9547C18.8181 9.40373 18.371 8.95808 17.82 8.95809L3.16661 8.95835C2.61433 8.95836 2.16663 9.40607 2.16663 9.95835V13.875C2.16663 16.3334 4.16663 18.3334 6.62496 18.3334H14.375C16.8333 18.3334 18.8333 16.3334 18.8333 13.875L18.82 9.9547ZM12.5833 13.9584H11.175V15.4167C11.175 15.7584 10.8916 16.0417 10.55 16.0417C10.2 16.0417 9.92496 15.7584 9.92496 15.4167V13.9584H8.41663C8.07496 13.9584 7.79163 13.675 7.79163 13.3334C7.79163 12.9917 8.07496 12.7084 8.41663 12.7084H9.92496V11.25C9.92496 10.9084 10.2 10.625 10.55 10.625C10.8916 10.625 11.175 10.9084 11.175 11.25V12.7084H12.5833C12.925 12.7084 13.2083 12.9917 13.2083 13.3334C13.2083 13.675 12.925 13.9584 12.5833 13.9584Z" fill="white"/>
</svg>
