<svg width="32" height="32" viewBox="0 0 32 32" fill="none" xmlns="http://www.w3.org/2000/svg">
<path d="M25 10.667V13.467C24.4133 13.387 23.7467 13.347 23 13.3337V10.667C23 6.46699 21.8133 3.66699 16 3.66699C10.1867 3.66699 9 6.46699 9 10.667V13.3337C8.25333 13.347 7.58667 13.387 7 13.467V10.667C7 6.80033 7.93333 1.66699 16 1.66699C24.0667 1.66699 25 6.80033 25 10.667Z" fill="#334155"/>
<path d="M24.9998 13.4663C24.4132 13.3863 23.7465 13.3463 22.9998 13.333H8.99984C8.25317 13.3463 7.5865 13.3863 6.99984 13.4663C3.59984 13.8797 2.6665 15.5463 2.6665 19.9997V22.6663C2.6665 27.9997 3.99984 29.333 9.33317 29.333H22.6665C27.9998 29.333 29.3332 27.9997 29.3332 22.6663V19.9997C29.3332 15.5463 28.3998 13.8797 24.9998 13.4663ZM11.6132 22.2797C11.3598 22.5197 11.0132 22.6663 10.6665 22.6663C10.4932 22.6663 10.3198 22.6263 10.1598 22.5597C9.9865 22.493 9.85317 22.3997 9.71984 22.2797C9.47984 22.0263 9.33317 21.6797 9.33317 21.333C9.33317 21.1597 9.37317 20.9863 9.43984 20.8263C9.5065 20.6663 9.59984 20.5197 9.71984 20.3863C9.85317 20.2663 9.9865 20.173 10.1598 20.1063C10.6532 19.893 11.2398 20.013 11.6132 20.3863C11.7332 20.5197 11.8265 20.6663 11.8932 20.8263C11.9598 20.9863 11.9998 21.1597 11.9998 21.333C11.9998 21.6797 11.8532 22.0263 11.6132 22.2797ZM17.2265 21.8397C17.1598 21.9997 17.0665 22.1463 16.9465 22.2797C16.6932 22.5197 16.3465 22.6663 15.9998 22.6663C15.6398 22.6663 15.3065 22.5197 15.0532 22.2797C14.9332 22.1463 14.8398 21.9997 14.7732 21.8397C14.7065 21.6797 14.6665 21.5063 14.6665 21.333C14.6665 20.973 14.8132 20.6397 15.0532 20.3863C15.5465 19.893 16.4398 19.893 16.9465 20.3863C17.1865 20.6397 17.3332 20.973 17.3332 21.333C17.3332 21.5063 17.2932 21.6797 17.2265 21.8397ZM22.2798 22.2797C22.0265 22.5197 21.6798 22.6663 21.3332 22.6663C20.9865 22.6663 20.6398 22.5197 20.3865 22.2797C20.1465 22.0263 19.9998 21.693 19.9998 21.333C19.9998 20.973 20.1465 20.6397 20.3865 20.3863C20.8932 19.893 21.7865 19.893 22.2798 20.3863C22.3332 20.453 22.3865 20.5197 22.4398 20.5997C22.4932 20.6663 22.5332 20.7463 22.5598 20.8263C22.5998 20.9063 22.6265 20.9863 22.6398 21.0663C22.6532 21.1597 22.6665 21.253 22.6665 21.333C22.6665 21.6797 22.5198 22.0263 22.2798 22.2797Z" fill="#334155"/>
</svg>
