<svg width="32" height="32" viewBox="0 0 32 32" fill="none" xmlns="http://www.w3.org/2000/svg">
<path d="M24 14.3337C23.4533 14.3337 23 13.8803 23 13.3337V10.667C23 6.46699 21.8133 3.66699 16 3.66699C10.1867 3.66699 9 6.46699 9 10.667V13.3337C9 13.8803 8.54667 14.3337 8 14.3337C7.45333 14.3337 7 13.8803 7 13.3337V10.667C7 6.80032 7.93333 1.66699 16 1.66699C24.0667 1.66699 25 6.80032 25 10.667V13.3337C25 13.8803 24.5467 14.3337 24 14.3337Z" fill="#94A3B8"/>
<path d="M22.6665 30.333H9.33317C3.45317 30.333 1.6665 28.5463 1.6665 22.6663V19.9997C1.6665 14.1197 3.45317 12.333 9.33317 12.333H22.6665C28.5465 12.333 30.3332 14.1197 30.3332 19.9997V22.6663C30.3332 28.5463 28.5465 30.333 22.6665 30.333ZM9.33317 14.333C4.55984 14.333 3.6665 15.2397 3.6665 19.9997V22.6663C3.6665 27.4263 4.55984 28.333 9.33317 28.333H22.6665C27.4398 28.333 28.3332 27.4263 28.3332 22.6663V19.9997C28.3332 15.2397 27.4398 14.333 22.6665 14.333H9.33317Z" fill="#94A3B8"/>
<path d="M10.6668 22.6671C10.4935 22.6671 10.3202 22.6272 10.1602 22.5605C9.98682 22.4938 9.85351 22.4005 9.72017 22.2805C9.48017 22.0271 9.3335 21.6938 9.3335 21.3338C9.3335 21.1605 9.37348 20.9871 9.44014 20.8271C9.50681 20.6538 9.60017 20.5205 9.72017 20.3872C9.85351 20.2672 9.98682 20.1738 10.1602 20.1071C10.6402 19.8938 11.2402 20.0138 11.6135 20.3872C11.7335 20.5205 11.8268 20.6671 11.8935 20.8271C11.9602 20.9871 12.0002 21.1605 12.0002 21.3338C12.0002 21.6805 11.8535 22.0271 11.6135 22.2805C11.3602 22.5205 11.0135 22.6671 10.6668 22.6671Z" fill="#94A3B8"/>
<path d="M15.9998 22.6669C15.6532 22.6669 15.3065 22.5202 15.0532 22.2802C14.8132 22.0269 14.6665 21.6935 14.6665 21.3335C14.6665 21.1602 14.6932 20.9869 14.7732 20.8269C14.8398 20.6669 14.9332 20.5202 15.0532 20.3869C15.3598 20.0802 15.8265 19.9335 16.2532 20.0269C16.3465 20.0402 16.4265 20.0669 16.5065 20.1069C16.5865 20.1335 16.6665 20.1736 16.7465 20.2269C16.8132 20.2669 16.8798 20.3336 16.9465 20.3869C17.0665 20.5202 17.1599 20.6669 17.2265 20.8269C17.2932 20.9869 17.3332 21.1602 17.3332 21.3335C17.3332 21.6935 17.1865 22.0269 16.9465 22.2802C16.8798 22.3335 16.8132 22.3869 16.7465 22.4402C16.6665 22.4935 16.5865 22.5336 16.5065 22.5602C16.4265 22.6002 16.3465 22.6269 16.2532 22.6402C16.1732 22.6536 16.0798 22.6669 15.9998 22.6669Z" fill="#94A3B8"/>
<path d="M21.3333 22.6669C20.9733 22.6669 20.64 22.5202 20.3867 22.2802C20.2667 22.1469 20.1733 22.0002 20.1066 21.8402C20.04 21.6802 20 21.5069 20 21.3335C20 20.9869 20.1467 20.6402 20.3867 20.3869C20.4533 20.3336 20.52 20.2802 20.5867 20.2269C20.6667 20.1736 20.7467 20.1335 20.8267 20.1069C20.9067 20.0669 20.9867 20.0402 21.0667 20.0269C21.5067 19.9335 21.96 20.0802 22.28 20.3869C22.52 20.6402 22.6667 20.9735 22.6667 21.3335C22.6667 21.5069 22.6267 21.6802 22.56 21.8402C22.4934 22.0135 22.4 22.1469 22.28 22.2802C22.0267 22.5202 21.68 22.6669 21.3333 22.6669Z" fill="#94A3B8"/>
</svg>
