<svg width="60" height="60" viewBox="0 0 60 60" fill="none" xmlns="http://www.w3.org/2000/svg">
<path fill-rule="evenodd" clip-rule="evenodd" d="M30 12.875H10V32.875C10 43.9207 18.9543 52.875 30 52.875C41.0457 52.875 50 43.9207 50 32.875C50 21.8293 41.0457 12.875 30 12.875ZM30 22.875C24.4772 22.875 20 27.3522 20 32.875C20 38.3979 24.4772 42.875 30 42.875C35.5228 42.875 40 38.3979 40 32.875C40 27.3522 35.5228 22.875 30 22.875Z" fill="#6A68F9"/>
<path fill-rule="evenodd" clip-rule="evenodd" d="M30 12.875H10V32.875C10 43.9207 18.9543 52.875 30 52.875C41.0457 52.875 50 43.9207 50 32.875C50 21.8293 41.0457 12.875 30 12.875ZM30 22.875C24.4772 22.875 20 27.3522 20 32.875C20 38.3979 24.4772 42.875 30 42.875C35.5228 42.875 40 38.3979 40 32.875C40 27.3522 35.5228 22.875 30 22.875Z" fill="#6A68F9"/>
<path d="M20 12.875H10V6.875H14C17.3137 6.875 20 9.56129 20 12.875V12.875Z" fill="#6A68F9"/>
<circle cx="30" cy="33.125" r="6.25" fill="#6A68F9"/>
</svg>
