<svg width="20" height="20" viewBox="0 0 20 20" fill="none" xmlns="http://www.w3.org/2000/svg">
<path d="M10.0001 19.0084C9.42508 19.0084 8.88341 18.7167 8.50008 18.2084L7.25008 16.5417C7.22508 16.5084 7.12508 16.4667 7.08342 16.4584H6.66675C3.19175 16.4584 1.04175 15.5167 1.04175 10.8334V6.66675C1.04175 2.98341 2.98341 1.04175 6.66675 1.04175H13.3334C17.0167 1.04175 18.9584 2.98341 18.9584 6.66675V10.8334C18.9584 14.5167 17.0167 16.4584 13.3334 16.4584H12.9167C12.8501 16.4584 12.7917 16.4917 12.7501 16.5417L11.5001 18.2084C11.1167 18.7167 10.5751 19.0084 10.0001 19.0084ZM6.66675 2.29175C3.68341 2.29175 2.29175 3.68341 2.29175 6.66675V10.8334C2.29175 14.6001 3.58341 15.2084 6.66675 15.2084H7.08342C7.50842 15.2084 7.99175 15.4501 8.25008 15.7917L9.50008 17.4584C9.79175 17.8417 10.2084 17.8417 10.5001 17.4584L11.7501 15.7917C12.0251 15.4251 12.4584 15.2084 12.9167 15.2084H13.3334C16.3167 15.2084 17.7084 13.8167 17.7084 10.8334V6.66675C17.7084 3.68341 16.3167 2.29175 13.3334 2.29175H6.66675Z" fill="#334155"/>
<path d="M14.1666 7.29175H5.83325C5.49159 7.29175 5.20825 7.00841 5.20825 6.66675C5.20825 6.32508 5.49159 6.04175 5.83325 6.04175H14.1666C14.5083 6.04175 14.7916 6.32508 14.7916 6.66675C14.7916 7.00841 14.5083 7.29175 14.1666 7.29175Z" fill="#334155"/>
<path d="M10.8333 11.4583H5.83325C5.49159 11.4583 5.20825 11.1749 5.20825 10.8333C5.20825 10.4916 5.49159 10.2083 5.83325 10.2083H10.8333C11.1749 10.2083 11.4583 10.4916 11.4583 10.8333C11.4583 11.1749 11.1749 11.4583 10.8333 11.4583Z" fill="#334155"/>
</svg>
