<svg width="48" height="48" viewBox="0 0 48 48" fill="none" xmlns="http://www.w3.org/2000/svg">
<path d="M31.6201 40.36C31.1001 40.36 30.5601 40.34 29.9801 40.28C28.9401 40.2 27.7601 40 26.5401 39.7L23.1801 38.9C13.9601 36.72 10.9401 31.84 13.1001 22.64L15.0601 14.26C15.5001 12.36 16.0201 10.82 16.6601 9.54003C20.1001 2.44003 26.6801 3.08003 31.3601 4.18003L34.7001 4.96003C39.3801 6.06003 42.3401 7.80003 44.0001 10.46C45.6401 13.12 45.9001 16.54 44.8001 21.22L42.8401 29.58C41.1201 36.9 37.5401 40.36 31.6201 40.36ZM26.2401 6.50003C22.9001 6.50003 20.7801 7.88003 19.3601 10.84C18.8401 11.92 18.3801 13.26 17.9801 14.94L16.0201 23.32C14.2401 30.88 16.3001 34.18 23.8601 35.98L27.2201 36.78C28.3001 37.04 29.3201 37.2 30.2401 37.28C35.6801 37.82 38.3801 35.44 39.9001 28.9L41.8601 20.54C42.7601 16.68 42.6401 13.98 41.4401 12.04C40.2401 10.1 37.8801 8.78003 34.0001 7.88003L30.6601 7.10003C29.0001 6.70003 27.5201 6.50003 26.2401 6.50003Z" fill="#475569"/>
<path d="M16.6601 44.4999C11.5201 44.4999 8.2401 41.4199 6.1401 34.9199L3.5801 27.0199C0.740103 18.2199 3.2801 13.2599 12.0401 10.4199L15.2001 9.39986C16.2401 9.07986 17.0201 8.85986 17.7201 8.73986C18.3001 8.61986 18.8601 8.83986 19.2001 9.29986C19.5401 9.75986 19.6001 10.3599 19.3601 10.8799C18.8401 11.9399 18.3801 13.2799 18.0001 14.9599L16.0401 23.3399C14.2601 30.8999 16.3201 34.1999 23.8801 35.9999L27.2401 36.7999C28.3201 37.0599 29.3401 37.2199 30.2601 37.2999C30.9001 37.3599 31.4201 37.7999 31.6001 38.4199C31.7601 39.0399 31.5201 39.6799 31.0001 40.0399C29.6801 40.9399 28.0201 41.6999 25.9201 42.3799L22.7601 43.4199C20.4601 44.1399 18.4601 44.4999 16.6601 44.4999ZM15.5601 12.4399L12.9801 13.2799C5.8401 15.5799 4.1401 18.9399 6.4401 26.0999L9.0001 33.9999C11.3201 41.1399 14.6801 42.8599 21.8201 40.5599L24.9801 39.5199C25.1001 39.4799 25.2001 39.4399 25.3201 39.3999L23.2001 38.8999C13.9801 36.7199 10.9601 31.8399 13.1201 22.6399L15.0801 14.2599C15.2201 13.6199 15.3801 12.9999 15.5601 12.4399Z" fill="#475569"/>
<path d="M34.9802 21.02C34.8602 21.02 34.7402 21 34.6002 20.98L24.9002 18.52C24.1002 18.32 23.6202 17.5 23.8202 16.7C24.0202 15.9 24.8402 15.42 25.6402 15.62L35.3402 18.08C36.1402 18.28 36.6202 19.1 36.4202 19.9C36.2602 20.56 35.6402 21.02 34.9802 21.02Z" fill="#475569"/>
<path d="M29.1198 27.7798C28.9998 27.7798 28.8798 27.7598 28.7398 27.7398L22.9198 26.2598C22.1198 26.0598 21.6398 25.2398 21.8398 24.4398C22.0398 23.6398 22.8598 23.1598 23.6598 23.3598L29.4798 24.8398C30.2798 25.0398 30.7598 25.8598 30.5598 26.6598C30.3998 27.3398 29.7998 27.7798 29.1198 27.7798Z" fill="#475569"/>
</svg>
