<svg width="24" height="24" viewBox="0 0 24 24" fill="none" xmlns="http://www.w3.org/2000/svg">
<path d="M18.6102 6.68031C18.2002 6.68031 17.8602 6.34031 17.8602 5.93031V4.42031C17.8602 3.82031 17.3702 3.32031 16.7602 3.32031H3.83023C3.23023 3.32031 2.73023 3.81031 2.73023 4.42031V5.93031C2.73023 6.34031 2.39023 6.68031 1.98023 6.68031C1.57023 6.68031 1.24023 6.34031 1.24023 5.93031V4.42031C1.24023 2.99031 2.41023 1.82031 3.84023 1.82031H16.7602C18.1902 1.82031 19.3602 2.98031 19.3602 4.42031V5.93031C19.3602 6.34031 19.0202 6.68031 18.6102 6.68031Z" fill="#334155"/>
<path d="M10.2998 18.8503C9.8898 18.8503 9.5498 18.5103 9.5498 18.1003V3.32031C9.5498 2.91031 9.8898 2.57031 10.2998 2.57031C10.7098 2.57031 11.0498 2.91031 11.0498 3.32031V18.1003C11.0498 18.5203 10.7098 18.8503 10.2998 18.8503Z" fill="#334155"/>
<path d="M12.4799 18.8496H6.8999C6.4899 18.8496 6.1499 18.5096 6.1499 18.0996C6.1499 17.6896 6.4899 17.3496 6.8999 17.3496H12.4799C12.8899 17.3496 13.2299 17.6896 13.2299 18.0996C13.2299 18.5096 12.8899 18.8496 12.4799 18.8496Z" fill="#334155"/>
<path d="M22.0102 13.2001C21.6002 13.2001 21.2602 12.8601 21.2602 12.4501V11.6501C21.2602 11.3401 21.0002 11.0801 20.6902 11.0801H13.6802C13.2702 11.0801 12.9302 10.7401 12.9302 10.3301C12.9302 9.92008 13.2702 9.58008 13.6802 9.58008H20.6902C21.8302 9.58008 22.7602 10.5101 22.7602 11.6501V12.4501C22.7602 12.8701 22.4302 13.2001 22.0102 13.2001Z" fill="#334155"/>
<path d="M16.0801 22.1801C15.6701 22.1801 15.3301 21.8401 15.3301 21.4301V10.8701C15.3301 10.4601 15.6701 10.1201 16.0801 10.1201C16.4901 10.1201 16.8301 10.4601 16.8301 10.8701V21.4301C16.8301 21.8401 16.4901 22.1801 16.0801 22.1801Z" fill="#334155"/>
<path d="M18.2199 22.1797H13.9399C13.5299 22.1797 13.1899 21.8397 13.1899 21.4297C13.1899 21.0197 13.5299 20.6797 13.9399 20.6797H18.2199C18.6299 20.6797 18.9699 21.0197 18.9699 21.4297C18.9699 21.8397 18.6299 22.1797 18.2199 22.1797Z" fill="#334155"/>
</svg>
