<svg width="20" height="20" viewBox="0 0 20 20" fill="none" xmlns="http://www.w3.org/2000/svg">
<path d="M10.0002 10.6247H4.06689C3.72523 10.6247 3.44189 10.3413 3.44189 9.99967V3.74967C3.44189 2.48301 4.46689 1.45801 5.73356 1.45801H10.0002C12.5252 1.45801 14.5836 3.51634 14.5836 6.04134C14.5836 8.56634 12.5252 10.6247 10.0002 10.6247ZM4.68356 9.37467H10.0002C11.8419 9.37467 13.3336 7.88301 13.3336 6.04134C13.3336 4.19967 11.8419 2.70801 10.0002 2.70801H5.73356C5.15856 2.70801 4.69189 3.17467 4.69189 3.74967V9.37467H4.68356Z" fill="white"/>
<path d="M11.9836 18.5417H5.73356C4.46689 18.5417 3.44189 17.5167 3.44189 16.25V10C3.44189 9.65833 3.72523 9.375 4.06689 9.375H11.9836C14.5086 9.375 16.5669 11.4333 16.5669 13.9583C16.5669 16.4833 14.5086 18.5417 11.9836 18.5417ZM4.68356 10.625V16.25C4.68356 16.825 5.15023 17.2917 5.72523 17.2917H11.9752C13.8169 17.2917 15.3086 15.8 15.3086 13.9583C15.3086 12.1167 13.8169 10.625 11.9752 10.625H4.68356Z" fill="white"/>
</svg>
