<svg width="20" height="20" viewBox="0 0 20 20" fill="none" xmlns="http://www.w3.org/2000/svg">
<path d="M15.7332 3.125H8.01657C7.6749 3.125 7.3999 2.84167 7.3999 2.5C7.3999 2.15833 7.68324 1.875 8.0249 1.875H15.7332C16.0749 1.875 16.3582 2.15833 16.3582 2.5C16.3582 2.84167 16.0749 3.125 15.7332 3.125Z" fill="#334155"/>
<path d="M11.9833 18.125H4.2666C3.92493 18.125 3.6416 17.8417 3.6416 17.5C3.6416 17.1583 3.92493 16.875 4.2666 16.875H11.9749C12.3166 16.875 12.5999 17.1583 12.5999 17.5C12.5999 17.8417 12.3249 18.125 11.9833 18.125Z" fill="#334155"/>
<path d="M8.12524 18.1248C8.07524 18.1248 8.02524 18.1164 7.97524 18.1081C7.64191 18.0248 7.43358 17.6831 7.51691 17.3498L11.2669 2.34976C11.3502 2.01642 11.6836 1.80809 12.0252 1.89142C12.3586 1.97476 12.5669 2.31642 12.4836 2.64976L8.73358 17.6498C8.65858 17.9331 8.40858 18.1248 8.12524 18.1248Z" fill="#334155"/>
</svg>
