<svg width="32" height="32" viewBox="0 0 32 32" fill="none" xmlns="http://www.w3.org/2000/svg">
<path d="M15.2799 19.3068C12.6665 19.3068 10.5332 17.1735 10.5332 14.5601C10.5332 11.9468 12.6665 9.81348 15.2799 9.81348C17.8932 9.81348 20.0265 11.9468 20.0265 14.5601C20.0265 17.1735 17.8932 19.3068 15.2799 19.3068ZM15.2799 11.8268C13.7732 11.8268 12.5332 13.0535 12.5332 14.5735C12.5332 16.0935 13.7599 17.3201 15.2799 17.3201C16.7999 17.3201 18.0265 16.0935 18.0265 14.5735C18.0265 13.0535 16.7999 11.8268 15.2799 11.8268Z" fill="#334155"/>
<path d="M22.2004 27.9335C21.6537 27.9335 21.2004 27.4802 21.2004 26.9335C21.2004 24.3735 18.547 22.2935 15.2803 22.2935C12.0137 22.2935 9.36035 24.3735 9.36035 26.9335C9.36035 27.4802 8.90702 27.9335 8.36035 27.9335C7.81368 27.9335 7.36035 27.4802 7.36035 26.9335C7.36035 23.2802 10.907 20.2935 15.2803 20.2935C19.6537 20.2935 23.2004 23.2668 23.2004 26.9335C23.2004 27.4802 22.747 27.9335 22.2004 27.9335Z" fill="#334155"/>
<path d="M15.3337 30.3333C7.80033 30.3333 1.66699 24.2 1.66699 16.6667C1.66699 9.13333 7.80033 3 15.3337 3C17.187 3 18.9737 3.35998 20.6537 4.06665C21.1337 4.26665 21.3737 4.79996 21.2137 5.29329C21.067 5.73329 21.0003 6.2 21.0003 6.66667C21.0003 7.45333 21.2137 8.22664 21.627 8.89331C21.8403 9.26664 22.1203 9.59996 22.4403 9.87996C23.6003 10.9333 25.3203 11.2667 26.667 10.7867C27.1603 10.6 27.7203 10.8533 27.9203 11.3467C28.6403 13.04 29.0003 14.84 29.0003 16.68C29.0003 24.2 22.867 30.3333 15.3337 30.3333ZM15.3337 5C8.90699 5 3.66699 10.2267 3.66699 16.6667C3.66699 23.1067 8.90699 28.3333 15.3337 28.3333C21.7603 28.3333 27.0003 23.1067 27.0003 16.6667C27.0003 15.3867 26.787 14.12 26.387 12.9067C24.547 13.2267 22.5337 12.6534 21.1203 11.36C20.6537 10.96 20.2403 10.4667 19.9203 9.92C19.3337 8.96 19.0137 7.82667 19.0137 6.66667C19.0137 6.30667 19.0403 5.96003 19.107 5.61336C17.8937 5.20003 16.627 5 15.3337 5Z" fill="#334155"/>
<path d="M25.3333 13.0002C23.76 13.0002 22.2667 12.4135 21.1067 11.3602C20.64 10.9602 20.2267 10.4668 19.9067 9.92017C19.32 8.96017 19 7.82683 19 6.66683C19 5.98683 19.1067 5.32018 19.32 4.68018C19.6133 3.77351 20.12 2.9335 20.8 2.2535C22 1.02683 23.6133 0.333496 25.3467 0.333496C27.16 0.333496 28.88 1.10685 30.0533 2.44019C31.0933 3.60019 31.68 5.0935 31.68 6.66683C31.68 7.1735 31.6133 7.68016 31.48 8.16016C31.3467 8.76016 31.0933 9.38685 30.7467 9.93351C29.9733 11.2402 28.7467 12.2135 27.3067 12.6668C26.7067 12.8935 26.04 13.0002 25.3333 13.0002ZM25.3333 2.3335C24.1467 2.3335 23.04 2.80014 22.2267 3.64014C21.76 4.12014 21.4267 4.66679 21.2267 5.29346C21.08 5.73346 21.0133 6.20016 21.0133 6.66683C21.0133 7.4535 21.2267 8.22681 21.64 8.89347C21.8533 9.26681 22.1333 9.60013 22.4533 9.88013C23.6133 10.9335 25.3333 11.2669 26.68 10.7869C27.6933 10.4669 28.52 9.80015 29.0533 8.90682C29.2933 8.52015 29.4533 8.10686 29.5467 7.69352C29.64 7.34686 29.68 7.0135 29.68 6.66683C29.68 5.60016 29.28 4.57352 28.56 3.77352C27.7467 2.85352 26.5733 2.3335 25.3333 2.3335Z" fill="#334155"/>
<path d="M27.3197 7.64014H23.333C22.7863 7.64014 22.333 7.1868 22.333 6.64014C22.333 6.09347 22.7863 5.64014 23.333 5.64014H27.3197C27.8663 5.64014 28.3197 6.09347 28.3197 6.64014C28.3197 7.1868 27.8797 7.64014 27.3197 7.64014Z" fill="#334155"/>
<path d="M25.333 9.68001C24.7863 9.68001 24.333 9.22668 24.333 8.68001V4.69336C24.333 4.14669 24.7863 3.69336 25.333 3.69336C25.8797 3.69336 26.333 4.14669 26.333 4.69336V8.68001C26.333 9.24001 25.8797 9.68001 25.333 9.68001Z" fill="#334155"/>
</svg>
